# Blender v2.76 (sub 0) OBJ File: 'genericBuilding1.blend'
# www.blender.org
o Cube
v 2.486479 0.084503 1.333442
v -2.486479 0.084503 1.333442
v 2.486477 1.847399 1.333443
v -2.486480 1.847399 1.333442
v 2.486479 0.084503 0.666776
v -2.486478 0.084503 0.666775
v 2.486478 2.084503 0.666776
v -2.486479 2.084503 0.666775
v 2.486477 1.550994 1.333443
v -2.486480 1.550994 1.333442
v 2.486477 1.550994 1.978551
v -2.486480 1.550994 1.978550
v 2.486477 0.084503 1.978551
v -2.486480 0.084503 1.978550
v 2.486477 1.188516 1.333443
v 2.486477 1.188516 1.978551
v -2.486480 1.117544 1.333442
v -2.486480 1.117544 1.978550
v 2.486477 0.084503 1.856146
v -2.486480 0.084503 1.856145
v 2.486477 1.188516 1.856146
v -2.486480 1.117544 1.856145
v 2.486479 0.084503 -1.333442
v -2.486479 0.084503 -1.333442
v 2.486477 1.847399 -1.333443
v -2.486480 1.847399 -1.333442
v 2.486479 0.084503 0.000000
v 2.486479 0.084503 -0.666776
v -2.486478 0.084503 -0.666775
v -2.486478 0.084503 0.000000
v 2.486479 2.175521 0.000000
v 2.486478 2.084503 -0.666776
v -2.486479 2.084503 -0.666775
v -2.486479 2.084503 0.000000
v 2.486477 1.550994 -1.333443
v -2.486480 1.550994 -1.333442
v 2.486477 1.550994 -1.978551
v -2.486480 1.550994 -1.978550
v 2.486477 0.084503 -1.978551
v -2.486480 0.084503 -1.978550
v 2.486477 1.188516 -1.333443
v 2.486477 1.188516 -1.978551
v -2.486480 1.117544 -1.333442
v -2.486480 1.117544 -1.978550
v 2.486477 0.084503 -1.856146
v -2.486480 0.084503 -1.856145
v 2.486477 1.188516 -1.856146
v -2.486480 1.117544 -1.856145
vn 0.000000 -1.000000 0.000000
vn -0.000000 0.942200 0.335100
vn 1.000000 0.000000 0.000000
vn -0.000000 -0.000000 1.000000
vn -1.000000 -0.000000 -0.000000
vn -0.009100 0.997600 0.068100
vn 0.000000 0.000000 -1.000000
vn 0.000000 1.000000 0.000000
vn -0.014300 0.999900 0.000000
vn 0.014300 -0.999900 0.000000
vn -0.000000 0.942200 -0.335100
vn -0.009100 0.997600 -0.068100
s off
f 5//1 1//1 2//1 6//1
f 7//2 8//2 4//2 3//2
f 5//3 7//3 3//3 1//3
f 1//4 3//4 4//4 2//4
f 2//5 4//5 8//5 6//5
f 6//5 8//5 34//5 30//5
f 27//3 31//3 7//3 5//3
f 31//6 34//6 8//6 7//6
f 27//1 5//1 6//1 30//1
f 4//7 3//7 9//7 10//7
f 10//1 9//1 11//1 12//1
f 12//7 11//7 13//7 14//7
f 14//8 13//8 1//8 2//8
f 11//5 9//5 15//5 16//5
f 12//3 14//3 2//3 10//3
f 12//5 10//5 17//5 18//5
f 15//9 17//9 18//9 16//9
f 16//10 18//10 22//10 21//10
f 13//1 14//1 20//1 19//1
f 20//7 22//7 21//7 19//7
f 16//5 21//5 19//5 13//5
f 28//1 29//1 24//1 23//1
f 32//11 25//11 26//11 33//11
f 28//3 23//3 25//3 32//3
f 23//7 24//7 26//7 25//7
f 24//5 29//5 33//5 26//5
f 29//5 30//5 34//5 33//5
f 27//3 28//3 32//3 31//3
f 31//12 32//12 33//12 34//12
f 27//1 30//1 29//1 28//1
f 26//4 36//4 35//4 25//4
f 36//1 38//1 37//1 35//1
f 38//4 40//4 39//4 37//4
f 40//8 24//8 23//8 39//8
f 37//5 42//5 41//5 35//5
f 38//3 36//3 24//3 40//3
f 38//5 44//5 43//5 36//5
f 41//9 42//9 44//9 43//9
f 42//10 47//10 48//10 44//10
f 39//1 45//1 46//1 40//1
f 46//4 45//4 47//4 48//4
f 42//5 39//5 45//5 47//5
